<?xml version="1.0" encoding="iso-8859-1"?>
<!-- Generator: Adobe Illustrator 19.0.0, SVG Export Plug-In . SVG Version: 6.00 Build 0)  -->
<svg xmlns="http://www.w3.org/2000/svg" xmlns:xlink="http://www.w3.org/1999/xlink" version="1.1" id="Layer_1" x="0px" y="0px" viewBox="0 0 438.053 438.053" style="enable-background:new 0 0 438.053 438.053;" xml:space="preserve" width="512" height="512">
<g>
	<path style="fill:#E09B2D;" d="M191.58,169.58c10.11,0,18.3,8.19,18.3,18.29c0,10.1-8.19,18.29-18.3,18.29   c-10.1,0-18.29-8.19-18.29-18.29C173.29,177.77,181.48,169.58,191.58,169.58z"/>
	<path style="fill:#E09B2D;" d="M260.6,266.2c15.26,0,27.63,12.38,27.63,27.64c0,15.27-12.37,27.64-27.63,27.64   c-15.27,0-27.64-12.37-27.64-27.64C232.96,278.58,245.33,266.2,260.6,266.2z"/>
	<path style="fill:#F7B239;" d="M361.32,211.74c-6.52,6.53-15.54,10.56-25.5,10.56c-19.91,0-36.05-16.14-36.05-36.05   c0-9.96,4.03-18.97,10.56-25.5l-91.3-91.29l-99.84,99.83c13.79,6.74,23.28,20.88,23.28,37.25c0,22.87-18.54,41.41-41.41,41.41   c-16.37,0-30.52-9.49-37.24-23.28L7.5,280.98c30.83,30.83,66.71,53.52,104.98,68.07c34.24,13.04,70.4,19.55,106.55,19.55   c76.56,0,153.11-29.21,211.52-87.62L361.32,211.74z M191.58,206.16c-9.61,0-17.49-7.41-18.23-16.83c-0.04-0.48-0.06-0.97-0.06-1.46   c0-5.2,2.17-9.89,5.65-13.2c3.28-3.16,7.74-5.09,12.64-5.09c10.11,0,18.3,8.19,18.3,18.29S201.69,206.16,191.58,206.16z    M260.6,321.48c-15.27,0-27.64-12.37-27.64-27.64c0-15.26,12.37-27.64,27.64-27.64c15.26,0,27.63,12.38,27.63,27.64   C288.23,309.11,275.86,321.48,260.6,321.48z"/>
	<path style="fill:#E09B2D;" d="M219.03,69.46l-40.09,105.21l-5.59,14.66l-60.87,159.72C74.21,334.5,38.33,311.81,7.5,280.98   l56.32-56.31c6.72,13.79,20.87,23.28,37.24,23.28c22.87,0,41.41-18.54,41.41-41.41c0-16.37-9.49-30.51-23.28-37.25L219.03,69.46z"/>
	<path style="fill:#FFFFFF;" d="M397.361,287.816c-1.92,0-3.839-0.732-5.304-2.197l-28.551-28.556   c-2.929-2.929-2.929-7.678,0.001-10.606c2.928-2.928,7.677-2.929,10.606,0.001l28.551,28.556c2.929,2.929,2.929,7.678-0.001,10.606   C401.2,287.084,399.28,287.816,397.361,287.816z"/>
	<path style="fill:#FFFFFF;" d="M328.955,252.404c-0.29,0-0.583-0.017-0.877-0.052c-17.589-2.048-33.94-11.297-44.862-25.375   c-2.539-3.273-1.944-7.984,1.328-10.523c3.271-2.539,7.984-1.944,10.523,1.328c8.469,10.916,21.133,18.086,34.745,19.672   c4.114,0.479,7.062,4.202,6.582,8.316C335.95,249.59,332.708,252.404,328.955,252.404z"/>
	<path style="fill:#FFFFFF;" d="M281.076,171.525c-1.923,0-3.845-0.734-5.31-2.203l-43.456-43.565   c-2.926-2.933-2.92-7.682,0.013-10.606c2.934-2.927,7.683-2.92,10.606,0.013l43.456,43.565c2.926,2.933,2.92,7.682-0.013,10.606   C284.909,170.796,282.992,171.525,281.076,171.525z"/>
	<circle style="fill:#FFFFFF;" cx="219.03" cy="101.986" r="7.5"/>
	<g>
		<path style="fill:#333333;" d="M219.032,376.096c-81.91,0-158.917-31.896-216.835-89.814C0.79,284.875,0,282.967,0,280.978    s0.791-3.897,2.197-5.304l56.319-56.309c1.714-1.715,4.151-2.49,6.542-2.094c2.391,0.4,4.44,1.932,5.502,4.11    c5.734,11.762,17.419,19.067,30.495,19.067c18.699,0,33.912-15.213,33.912-33.911c0-13.072-7.308-24.763-19.072-30.508    c-2.177-1.063-3.707-3.113-4.106-5.504c-0.399-2.39,0.381-4.825,2.094-6.539l99.846-99.835c2.93-2.929,7.677-2.927,10.607,0    l91.296,91.296c2.929,2.93,2.929,7.678,0,10.607c-5.39,5.39-8.358,12.561-8.358,20.192c0,15.743,12.808,28.551,28.551,28.551    c7.632,0,14.803-2.968,20.192-8.358c2.93-2.928,7.678-2.928,10.607,0l69.233,69.233c2.929,2.93,2.929,7.678,0,10.607    C377.939,344.2,300.935,376.096,219.032,376.096z M18.173,280.912c54.431,51.767,125.461,80.185,200.858,80.185    c75.392,0,146.419-28.418,200.849-80.185l-59.013-59.013c-7.279,5.134-15.948,7.9-25.044,7.9    c-24.014,0-43.551-19.537-43.551-43.551c0-9.096,2.767-17.765,7.9-25.044l-81.142-81.142l-87.888,87.878    c11.803,9.15,18.823,23.209,18.823,38.598c0,26.97-21.942,48.911-48.912,48.911c-15.393,0-29.448-7.019-38.59-18.82    L18.173,280.912z"/>
		<path style="fill:#333333;" d="M260.595,328.979c-19.375,0-35.138-15.763-35.138-35.137c0-19.375,15.763-35.138,35.138-35.138    c19.374,0,35.137,15.763,35.137,35.138C295.732,313.216,279.969,328.979,260.595,328.979z M260.595,273.705    c-11.104,0-20.138,9.034-20.138,20.138s9.034,20.137,20.138,20.137s20.137-9.033,20.137-20.137S271.699,273.705,260.595,273.705z"/>
		<path style="fill:#333333;" d="M191.583,213.665c-14.223,0-25.794-11.571-25.794-25.794s11.571-25.794,25.794-25.794    s25.793,11.571,25.793,25.794S205.805,213.665,191.583,213.665z M191.583,177.077c-5.952,0-10.794,4.842-10.794,10.794    s4.842,10.794,10.794,10.794s10.793-4.842,10.793-10.794S197.534,177.077,191.583,177.077z"/>
		<circle style="fill:#333333;" cx="269.82" cy="240.303" r="7.5"/>
		<circle style="fill:#333333;" cx="119.82" cy="292.313" r="7.5"/>
	</g>
</g>















</svg>
